<svg width="22" height="23" viewBox="0 0 22 23" fill="none" xmlns="http://www.w3.org/2000/svg">
<path d="M11.0288 22.7822C10.1006 22.7822 9.21031 22.4135 8.55393 21.7571C7.89756 21.1007 7.52881 20.2105 7.52881 19.2822C7.52881 19.0502 7.621 18.8276 7.78509 18.6635C7.94918 18.4994 8.17174 18.4072 8.40381 18.4072H13.6538C13.8859 18.4072 14.1084 18.4994 14.2725 18.6635C14.4366 18.8276 14.5288 19.0502 14.5288 19.2822C14.5288 20.2105 14.1601 21.1007 13.5037 21.7571C12.8473 22.4135 11.9571 22.7822 11.0288 22.7822ZM9.51506 20.1572C9.66889 20.4224 9.8897 20.6425 10.1554 20.7956C10.421 20.9486 10.7222 21.0291 11.0288 21.0291C11.3354 21.0291 11.6366 20.9486 11.9023 20.7956C12.1679 20.6425 12.3887 20.4224 12.5426 20.1572H9.51506Z" fill="black"/>
<path d="M12.7788 3.53223H9.27881C9.04674 3.53223 8.82418 3.44004 8.66009 3.27594C8.496 3.11185 8.40381 2.88929 8.40381 2.65723C8.40381 1.96103 8.68037 1.29335 9.17265 0.801071C9.66494 0.308788 10.3326 0.0322266 11.0288 0.0322266C11.725 0.0322266 12.3927 0.308788 12.885 0.801071C13.3772 1.29335 13.6538 1.96103 13.6538 2.65723C13.6538 2.88929 13.5616 3.11185 13.3975 3.27594C13.2334 3.44004 13.0109 3.53223 12.7788 3.53223Z" fill="black"/>
<path d="M20.6538 20.1572H1.40381C1.17175 20.1572 0.949187 20.065 0.785092 19.9009C0.620998 19.7369 0.52881 19.5143 0.52881 19.2822C0.528043 18.294 0.766379 17.3204 1.22348 16.4443C1.68057 15.5681 2.34286 14.8156 3.15381 14.251V9.65723C3.15376 7.57771 3.97624 5.58259 5.44175 4.10724C6.90727 2.63189 8.89684 1.79609 10.9763 1.78223H11.0726C13.1611 1.78223 15.1642 2.61191 16.641 4.08876C18.1179 5.56561 18.9476 7.56865 18.9476 9.65723V14.251C19.7504 14.8205 20.4042 15.5751 20.8536 16.4509C21.3029 17.3267 21.5345 18.2979 21.5288 19.2822C21.5288 19.5143 21.4366 19.7369 21.2725 19.9009C21.1084 20.065 20.8859 20.1572 20.6538 20.1572ZM2.36631 18.4072H19.6913C19.5674 17.8006 19.3161 17.2272 18.9541 16.7249C18.5921 16.2226 18.1276 15.8029 17.5913 15.4935C17.4578 15.4164 17.347 15.3054 17.2702 15.1717C17.1933 15.038 17.1532 14.8864 17.1538 14.7322V9.65723C17.1538 8.03278 16.5085 6.47486 15.3598 5.3262C14.2112 4.17754 12.6533 3.53223 11.0288 3.53223C9.40436 3.53223 7.84644 4.17754 6.69778 5.3262C5.54912 6.47486 4.90381 8.03278 4.90381 9.65723V14.7322C4.90442 14.8864 4.86428 15.038 4.78745 15.1717C4.71063 15.3054 4.59984 15.4164 4.46631 15.4935C3.93003 15.8029 3.46553 16.2226 3.10352 16.7249C2.74151 17.2272 2.49024 17.8006 2.36631 18.4072Z" fill="black"/>
</svg>
