<svg width="11" height="11" viewBox="0 0 11 11" fill="none" xmlns="http://www.w3.org/2000/svg">
<path d="M5.1664 1.24738C5.27429 0.915311 5.74408 0.915311 5.85197 1.24738L6.72301 3.92814C6.77126 4.07665 6.90965 4.1772 7.0658 4.1772L9.88452 4.1772C10.2337 4.1772 10.3788 4.62399 10.0964 4.82922L7.81598 6.48602C7.68965 6.5778 7.63679 6.74049 7.68505 6.889L8.55608 9.56976C8.66397 9.90183 8.28391 10.178 8.00144 9.97273L5.72104 8.31593C5.59471 8.22415 5.42366 8.22415 5.29733 8.31593L3.01693 9.97273C2.73446 10.178 2.35439 9.90183 2.46229 9.56976L3.33332 6.889C3.38158 6.74049 3.32872 6.5778 3.20239 6.48602L0.921993 4.82922C0.63952 4.62399 0.784692 4.1772 1.13385 4.1772L3.95257 4.1772C4.10872 4.1772 4.24711 4.07665 4.29536 3.92814L5.1664 1.24738Z" fill="#FF9B26"/>
</svg>
