<svg width="25" height="24" viewBox="0 0 25 24" fill="none" xmlns="http://www.w3.org/2000/svg">
<path d="M24.248 12C24.248 5.3833 18.8652 0 12.248 0C5.63086 0 0.248047 5.3833 0.248047 12C0.248047 15.3836 1.66125 18.4387 3.92169 20.6223C3.97461 20.6912 4.03729 20.747 4.11066 20.7941C6.25189 22.7769 9.10632 24 12.248 24C15.3898 24 18.2442 22.7769 20.3854 20.7941C20.4588 20.747 20.5215 20.6912 20.5744 20.6223C22.8348 18.4387 24.248 15.3836 24.248 12ZM12.248 1.5C18.0381 1.5 22.748 6.21045 22.748 12C22.748 14.455 21.8948 16.7108 20.4778 18.5009C19.8273 16.403 17.9702 14.7607 15.4496 14.0051C16.8232 13.011 17.7217 11.4005 17.7217 9.58057C17.7217 6.56641 15.2666 4.11426 12.248 4.11426C9.22949 4.11426 6.77441 6.56641 6.77441 9.58057C6.77441 11.4005 7.67285 13.011 9.04645 14.0051C6.52594 14.7607 4.66882 16.403 4.01831 18.5009C2.60132 16.7108 1.74805 14.455 1.74805 12C1.74805 6.21045 6.45801 1.5 12.248 1.5ZM8.27441 9.58057C8.27441 7.39355 10.0566 5.61426 12.248 5.61426C14.4395 5.61426 16.2217 7.39355 16.2217 9.58057C16.2217 11.7676 14.4395 13.5469 12.248 13.5469C10.0566 13.5469 8.27441 11.7676 8.27441 9.58057ZM5.27881 19.832C5.50427 17.082 8.42041 15.0469 12.248 15.0469C16.0757 15.0469 18.9918 17.082 19.2173 19.832C17.3611 21.4855 14.9238 22.5 12.248 22.5C9.57233 22.5 7.13495 21.4855 5.27881 19.832Z" fill="#1D1D1B"/>
</svg>
